<?xml version="1.0" ?><svg viewBox="0 0 128 128" xmlns="http://www.w3.org/2000/svg"><defs><style>.cls-1{fill:#0088ce;}.cls-2,.cls-3{fill:#66b8e2;}.cls-3{stroke:#0088ce;stroke-miterlimit:10;stroke-width:6px;}</style></defs><title/><g data-name="Layer 5" id="Layer_5"><path class="cls-1" d="M98.25,30.45H88.89v6h9.36a6.32,6.32,0,0,1,6.32,6.32V97.58a6.32,6.32,0,0,1-6.32,6.32H29.75a6.32,6.32,0,0,1-6.32-6.32V42.77a6.32,6.32,0,0,1,6.32-6.32h9.36v-6H29.75A12.33,12.33,0,0,0,17.43,42.77V97.58A12.33,12.33,0,0,0,29.75,109.9h68.5a12.33,12.33,0,0,0,12.32-12.32V42.77A12.33,12.33,0,0,0,98.25,30.45Zm-13.9,6v-6H43.65v6Z"/><path class="cls-2" d="M107.57,42.77v13H20.43v-13a9.32,9.32,0,0,1,9.32-9.32h9.36v7.07a.28.28,0,0,0,.27.28h4a.29.29,0,0,0,.28-.28V33.45h40.7v7.07a.29.29,0,0,0,.28.28h4a.28.28,0,0,0,.27-.28V33.45h9.36A9.32,9.32,0,0,1,107.57,42.77Z"/><path class="cls-1" d="M98.25,30.45H88.89v6h9.36a6.32,6.32,0,0,1,6.32,6.32v10H23.43v-10a6.32,6.32,0,0,1,6.32-6.32h9.36v-6H29.75A12.33,12.33,0,0,0,17.43,42.77v16h93.14v-16A12.33,12.33,0,0,0,98.25,30.45Zm-13.9,6v-6H43.65v6Z"/><path class="cls-1" d="M43.65,36.45v4.07a.29.29,0,0,1-.28.28h-4a.28.28,0,0,1-.27-.28V36.45h-6v4.07a6.28,6.28,0,0,0,6.27,6.28h4a6.29,6.29,0,0,0,6.28-6.28V36.45ZM43.37,20.1h-4a6.28,6.28,0,0,0-6.27,6.28V40.52a6.28,6.28,0,0,0,6.27,6.28h4a6.29,6.29,0,0,0,6.28-6.28V26.38A6.29,6.29,0,0,0,43.37,20.1Zm.28,20.42a.29.29,0,0,1-.28.28h-4a.28.28,0,0,1-.27-.28V26.38a.27.27,0,0,1,.27-.28h4a.28.28,0,0,1,.28.28Z"/><path class="cls-1" d="M88.62,20.1h-4a6.29,6.29,0,0,0-6.28,6.28V40.52a6.29,6.29,0,0,0,6.28,6.28h4a6.28,6.28,0,0,0,6.27-6.28V26.38A6.28,6.28,0,0,0,88.62,20.1Zm.27,20.42a.28.28,0,0,1-.27.28h-4a.29.29,0,0,1-.28-.28V26.38a.28.28,0,0,1,.28-.28h4a.27.27,0,0,1,.27.28Z"/><rect class="cls-3" height="10.65" width="13.13" x="32.22" y="64.64"/><rect class="cls-3" height="10.65" width="13.13" x="57.44" y="64.64"/><rect class="cls-3" height="10.65" width="13.13" x="82.66" y="64.64"/><rect class="cls-3" height="10.65" width="13.13" x="32.22" y="86.5"/><rect class="cls-3" height="10.65" width="13.13" x="57.44" y="86.5"/><rect class="cls-3" height="10.65" width="13.13" x="82.66" y="86.5"/></g></svg>